G04*
G04 #@! TF.GenerationSoftware,Altium Limited,Altium Designer,25.8.1 (18)*
G04*
G04 Layer_Color=8388736*
%FSLAX44Y44*%
%MOMM*%
G71*
G04*
G04 #@! TF.SameCoordinates,9F860039-6082-445F-9F98-FDF6B6AB7181*
G04*
G04*
G04 #@! TF.FilePolarity,Negative*
G04*
G01*
G75*
%ADD28R,1.5532X0.6032*%
%ADD29R,2.1032X2.0032*%
%ADD30R,2.1032X2.1032*%
%ADD31R,1.4032X1.0532*%
%ADD32R,1.8032X1.7032*%
%ADD33R,0.7874X2.6524*%
%ADD34O,0.7874X2.6524*%
%ADD35R,2.6032X1.2032*%
%ADD36R,2.6032X3.5032*%
%ADD37R,1.9032X1.9032*%
%ADD38R,1.8032X3.2032*%
%ADD39C,1.8032*%
%ADD40R,1.8032X1.8032*%
%ADD41C,0.9032*%
%ADD42C,2.7032*%
%ADD43C,1.7032*%
D28*
X253250Y141750D02*
D03*
Y135250D02*
D03*
Y128750D02*
D03*
Y148250D02*
D03*
Y154750D02*
D03*
D29*
X280000Y101750D02*
D03*
Y181750D02*
D03*
D30*
Y153750D02*
D03*
Y129750D02*
D03*
D31*
X70000Y51105D02*
D03*
X69946Y31852D02*
D03*
X45000Y41301D02*
D03*
X71250Y98605D02*
D03*
X71196Y79352D02*
D03*
X46250Y88801D02*
D03*
D32*
X106250Y51250D02*
D03*
Y21250D02*
D03*
Y82500D02*
D03*
Y112500D02*
D03*
D33*
X216501Y93750D02*
D03*
X203802D02*
D03*
X191102D02*
D03*
X178402D02*
D03*
X165702D02*
D03*
X153002D02*
D03*
X140302D02*
D03*
X140301Y28750D02*
D03*
X153001D02*
D03*
X165701D02*
D03*
X178401D02*
D03*
X191101D02*
D03*
X203801D02*
D03*
X216501D02*
D03*
X229201D02*
D03*
D34*
Y93750D02*
D03*
D35*
X109000Y237000D02*
D03*
Y260000D02*
D03*
Y283000D02*
D03*
D36*
X51000Y260000D02*
D03*
D37*
X73750Y161000D02*
D03*
Y194000D02*
D03*
X177500Y167250D02*
D03*
Y200250D02*
D03*
X280000Y249750D02*
D03*
Y282750D02*
D03*
X218750Y200250D02*
D03*
Y167250D02*
D03*
D38*
X125000Y154250D02*
D03*
Y198250D02*
D03*
X168750Y235500D02*
D03*
Y279500D02*
D03*
D39*
X16250Y125450D02*
D03*
Y100050D02*
D03*
Y150850D02*
D03*
Y201650D02*
D03*
Y227050D02*
D03*
Y176250D02*
D03*
D40*
Y74650D02*
D03*
D41*
X255500Y162500D02*
D03*
Y121000D02*
D03*
D42*
X47500Y151250D02*
D03*
X16540Y267500D02*
D03*
D43*
X222500Y130000D02*
D03*
X258750Y101250D02*
D03*
X177500Y116050D02*
D03*
Y147500D02*
D03*
M02*
