G04*
G04 #@! TF.GenerationSoftware,Altium Limited,Altium Designer,25.8.1 (18)*
G04*
G04 Layer_Physical_Order=2*
G04 Layer_Color=16711680*
%FSLAX44Y44*%
%MOMM*%
G71*
G04*
G04 #@! TF.SameCoordinates,E157F1C9-1C34-4564-A9C0-31B72F50DFCD*
G04*
G04*
G04 #@! TF.FilePolarity,Positive*
G04*
G01*
G75*
%ADD21C,0.5000*%
%ADD22C,0.3000*%
%ADD23C,1.6000*%
%ADD24R,1.6000X1.6000*%
%ADD25C,0.7000*%
%ADD26C,2.5000*%
%ADD27C,1.5000*%
D21*
X16250Y222500D02*
X47500Y191250D01*
Y151250D02*
Y191250D01*
X16395Y267355D02*
X16540Y267500D01*
X16250Y222500D02*
X16395Y222645D01*
Y267355D01*
D22*
X258141Y100641D02*
X258750Y101250D01*
X222500Y117500D02*
X239359Y100641D01*
X222500Y117500D02*
Y130000D01*
X239359Y100641D02*
X258141D01*
X177500Y116050D02*
Y147500D01*
D23*
X16250Y125450D02*
D03*
Y100050D02*
D03*
Y150850D02*
D03*
Y201650D02*
D03*
Y227050D02*
D03*
Y176250D02*
D03*
D24*
Y74650D02*
D03*
D25*
X255500Y162500D02*
D03*
Y121000D02*
D03*
D26*
X47500Y151250D02*
D03*
X16540Y267500D02*
D03*
D27*
X222500Y130000D02*
D03*
X258750Y101250D02*
D03*
X177500Y116050D02*
D03*
Y147500D02*
D03*
M02*
