G04*
G04 #@! TF.GenerationSoftware,Altium Limited,Altium Designer,25.8.1 (18)*
G04*
G04 Layer_Physical_Order=1*
G04 Layer_Color=255*
%FSLAX44Y44*%
%MOMM*%
G71*
G04*
G04 #@! TF.SameCoordinates,E157F1C9-1C34-4564-A9C0-31B72F50DFCD*
G04*
G04*
G04 #@! TF.FilePolarity,Positive*
G04*
G01*
G75*
%ADD10R,1.3500X0.4000*%
%ADD11R,1.9000X1.8000*%
%ADD12R,1.9000X1.9000*%
%ADD13R,1.2000X0.8500*%
%ADD14R,1.6000X1.5000*%
%ADD15R,0.6350X2.5000*%
%ADD16O,0.6350X2.5000*%
%ADD17R,2.4000X1.0000*%
%ADD18R,2.4000X3.3000*%
%ADD19R,1.7000X1.7000*%
%ADD20R,1.6000X3.0000*%
%ADD21C,0.5000*%
%ADD22C,0.3000*%
%ADD23C,1.6000*%
%ADD24R,1.6000X1.6000*%
%ADD25C,0.7000*%
%ADD26C,2.5000*%
%ADD27C,1.5000*%
G36*
X159250Y282559D02*
X122500D01*
Y289500D01*
X95500D01*
Y283531D01*
X92728Y282383D01*
X91727Y283384D01*
X90404Y284268D01*
X88843Y284578D01*
X88843Y284578D01*
X37343D01*
X35782Y284268D01*
X34459Y283384D01*
X34459Y283384D01*
X30866Y279791D01*
X30395Y279085D01*
X27654Y278353D01*
X26910Y278400D01*
X26127Y279182D01*
X23664Y280828D01*
X20927Y281962D01*
X18021Y282540D01*
X17810D01*
Y267500D01*
Y252460D01*
X18021D01*
X20927Y253038D01*
X23664Y254172D01*
X26127Y255818D01*
X26672Y256362D01*
X29672Y255119D01*
Y229274D01*
X26672Y228879D01*
X26072Y231118D01*
X24684Y233522D01*
X22722Y235484D01*
X20318Y236872D01*
X17638Y237590D01*
X17520D01*
Y227050D01*
Y216510D01*
X17638D01*
X20318Y217228D01*
X22722Y218616D01*
X24684Y220578D01*
X26072Y222982D01*
X26672Y225221D01*
X29672Y224826D01*
Y220839D01*
X19458Y210625D01*
X17501Y211150D01*
X14999D01*
X12583Y210503D01*
X10417Y209252D01*
X8648Y207483D01*
X7397Y205317D01*
X7119Y204278D01*
X4119Y204673D01*
Y220981D01*
X7119Y221785D01*
X7816Y220578D01*
X9778Y218616D01*
X12182Y217228D01*
X14862Y216510D01*
X14980D01*
Y227050D01*
Y237590D01*
X14862D01*
X12182Y236872D01*
X9778Y235484D01*
X7816Y233522D01*
X7119Y232315D01*
X4119Y233119D01*
Y254408D01*
X6438Y255562D01*
X7119Y255706D01*
X9416Y254172D01*
X12153Y253038D01*
X15059Y252460D01*
X15270D01*
Y267500D01*
Y282540D01*
X15059D01*
X12153Y281962D01*
X9416Y280828D01*
X7119Y279294D01*
X6438Y279438D01*
X4119Y280592D01*
Y295881D01*
X159250D01*
Y282559D01*
D02*
G37*
G36*
X92881Y270695D02*
X92881Y270695D01*
X94204Y269811D01*
X95765Y269500D01*
X95765Y269500D01*
X113465D01*
X113465Y269500D01*
X111861Y266500D01*
X95500D01*
Y264078D01*
X64500D01*
Y276422D01*
X87154D01*
X92881Y270695D01*
D02*
G37*
G36*
X269922Y276750D02*
X269922Y276750D01*
Y268096D01*
X263616Y261791D01*
X262732Y260468D01*
X262422Y258907D01*
X262422Y258907D01*
Y178622D01*
X259650Y177474D01*
X254562Y182562D01*
X253239Y183446D01*
X251678Y183757D01*
X251678Y183757D01*
X241011D01*
X228750Y196018D01*
Y204482D01*
X240384Y216116D01*
X241268Y217439D01*
X241578Y219000D01*
X241578Y219000D01*
Y239900D01*
X241578Y239900D01*
X241268Y241461D01*
X240384Y242784D01*
X225284Y257884D01*
X223961Y258768D01*
X222400Y259078D01*
X222400Y259078D01*
X138346D01*
X123755Y273670D01*
X124903Y276441D01*
X159250D01*
Y263000D01*
X178250D01*
Y279541D01*
X268268D01*
X269922Y276750D01*
D02*
G37*
G36*
X133773Y252116D02*
X133773Y252116D01*
X135096Y251232D01*
X136657Y250922D01*
X158210D01*
Y240135D01*
X157738Y240123D01*
X157593Y240059D01*
X124157D01*
X124012Y240123D01*
X123540Y240135D01*
Y244540D01*
X110270D01*
Y237000D01*
Y229460D01*
X123540D01*
Y233864D01*
X124012Y233877D01*
X124157Y233941D01*
X157593D01*
X157738Y233877D01*
X158210Y233864D01*
Y217960D01*
X167480D01*
Y235500D01*
X168750D01*
Y236770D01*
X179290D01*
Y250922D01*
X220711D01*
X233422Y238211D01*
Y220689D01*
X222982Y210250D01*
X208750D01*
Y190250D01*
X222982D01*
X236438Y176794D01*
X236438Y176794D01*
X237761Y175910D01*
X239322Y175600D01*
X239322Y175600D01*
X249989D01*
X255089Y170500D01*
X254820Y169118D01*
X254039Y167307D01*
X252668Y166739D01*
X251261Y165332D01*
X250668Y163900D01*
X248996Y163159D01*
X247500Y162826D01*
X240913Y169413D01*
X239921Y170076D01*
X238750Y170309D01*
X238750Y170309D01*
X230406D01*
X230262Y170373D01*
X229790Y170385D01*
Y178290D01*
X220020D01*
Y167250D01*
Y156210D01*
X229790D01*
Y164114D01*
X230262Y164127D01*
X230406Y164191D01*
X237483D01*
X243960Y157714D01*
Y156020D01*
X253250D01*
Y153480D01*
X243960D01*
Y150210D01*
Y149520D01*
X253250D01*
Y146980D01*
X243960D01*
Y144559D01*
X240250D01*
X239079Y144326D01*
X238087Y143663D01*
X233213Y138789D01*
X232740Y138081D01*
X231796Y137679D01*
X229393Y137305D01*
X228665Y138034D01*
X226375Y139356D01*
X223822Y140040D01*
X223770D01*
Y130000D01*
Y119960D01*
X223822D01*
X226375Y120644D01*
X228665Y121966D01*
X229317Y122618D01*
X232317Y121376D01*
Y111200D01*
X230471Y109771D01*
Y93750D01*
X227931D01*
Y108649D01*
X226971Y108458D01*
X225081Y107195D01*
X224176Y105841D01*
X221590Y106178D01*
X221176Y106340D01*
Y107750D01*
X219560D01*
Y112249D01*
X219327Y113420D01*
X218664Y114412D01*
X218664Y114412D01*
X199863Y133213D01*
X198871Y133876D01*
X197700Y134109D01*
X197700Y134109D01*
X188177D01*
X187029Y136880D01*
X205193Y155044D01*
X207710Y156210D01*
X217480D01*
Y165980D01*
X207710D01*
Y163386D01*
X207238Y163373D01*
X207094Y163309D01*
X206073D01*
X204902Y163076D01*
X203910Y162413D01*
X203910Y162413D01*
X189500Y148003D01*
X187770Y148396D01*
X186381Y149127D01*
X185887Y150974D01*
X184702Y153026D01*
X183478Y154250D01*
X183873Y156104D01*
X184564Y157250D01*
X187500D01*
Y177250D01*
X167500D01*
Y157250D01*
X170436D01*
X171127Y156104D01*
X171522Y154250D01*
X170298Y153026D01*
X169113Y150974D01*
X168619Y149127D01*
X167230Y148396D01*
X165500Y148003D01*
X157090Y156413D01*
X156098Y157076D01*
X154927Y157309D01*
X154927Y157309D01*
X136157D01*
X136012Y157373D01*
X135540Y157386D01*
Y171790D01*
X126270D01*
Y154250D01*
X125000D01*
Y152980D01*
X114460D01*
Y136710D01*
X111626Y136309D01*
X57610D01*
X56700Y139309D01*
X57087Y139568D01*
X59182Y141663D01*
X60828Y144126D01*
X61962Y146863D01*
X62037Y147239D01*
X62075Y147393D01*
X63381Y149960D01*
Y149960D01*
X72480D01*
Y161000D01*
Y172040D01*
X62710D01*
Y160958D01*
X59710Y160048D01*
X59182Y160837D01*
X57087Y162932D01*
X54624Y164578D01*
X51887Y165712D01*
X48981Y166290D01*
X48770D01*
Y151250D01*
X47500D01*
Y149980D01*
X32460D01*
Y149769D01*
X33038Y146863D01*
X34172Y144126D01*
X35818Y141663D01*
X37199Y140281D01*
X36622Y137696D01*
X36219Y137113D01*
X34549Y136877D01*
X27529Y143897D01*
X27485Y144027D01*
X27161Y144399D01*
X26920Y144760D01*
X26692Y145203D01*
X26482Y145734D01*
X26297Y146355D01*
X26141Y147063D01*
X26021Y147840D01*
X25882Y149725D01*
X25873Y150784D01*
X25750Y151074D01*
Y152101D01*
X25103Y154517D01*
X23852Y156683D01*
X22083Y158452D01*
X19917Y159703D01*
X17501Y160350D01*
X14999D01*
X12583Y159703D01*
X10417Y158452D01*
X8648Y156683D01*
X7397Y154517D01*
X7119Y153478D01*
X4119Y153873D01*
Y173227D01*
X7119Y173622D01*
X7397Y172583D01*
X8648Y170417D01*
X10417Y168648D01*
X12583Y167397D01*
X14999Y166750D01*
X17501D01*
X19917Y167397D01*
X22083Y168648D01*
X22802Y169367D01*
X23087Y169478D01*
X23663Y170031D01*
X24205Y170487D01*
X24748Y170883D01*
X25292Y171220D01*
X25837Y171500D01*
X26385Y171727D01*
X26937Y171901D01*
X27496Y172025D01*
X28066Y172100D01*
X28719Y172128D01*
X28813Y172172D01*
X56000D01*
X56000Y172172D01*
X57561Y172482D01*
X58884Y173366D01*
X69518Y184000D01*
X83750D01*
Y194172D01*
X115500D01*
Y181750D01*
X134500D01*
Y196172D01*
X167500D01*
Y190250D01*
X187500D01*
Y210250D01*
X167500D01*
Y204328D01*
X134500D01*
Y214750D01*
X115500D01*
Y202328D01*
X83750D01*
Y204000D01*
X69518D01*
X55078Y218439D01*
Y242000D01*
X64500D01*
Y255922D01*
X95500D01*
Y253500D01*
X122500D01*
Y259470D01*
X125272Y260618D01*
X133773Y252116D01*
D02*
G37*
G36*
X293381Y262381D02*
X291040Y260790D01*
X281270D01*
Y249750D01*
X278730D01*
Y260790D01*
X278016D01*
X277461Y262131D01*
X277062Y263790D01*
X277768Y264846D01*
X278078Y266407D01*
X278078Y266407D01*
Y272750D01*
X290000D01*
Y292750D01*
X270000D01*
Y285659D01*
X178250D01*
Y295881D01*
X293381D01*
Y262381D01*
D02*
G37*
G36*
X160781Y234000D02*
X160751Y234285D01*
X160660Y234540D01*
X160511Y234765D01*
X160301Y234960D01*
X160030Y235125D01*
X159700Y235260D01*
X159311Y235365D01*
X158861Y235440D01*
X158350Y235485D01*
X157781Y235500D01*
Y238500D01*
X158350Y238515D01*
X158861Y238560D01*
X159311Y238635D01*
X159700Y238740D01*
X160030Y238875D01*
X160301Y239040D01*
X160511Y239235D01*
X160660Y239460D01*
X160751Y239715D01*
X160781Y240000D01*
Y234000D01*
D02*
G37*
G36*
X120999Y239715D02*
X121089Y239460D01*
X121240Y239235D01*
X121449Y239040D01*
X121720Y238875D01*
X122050Y238740D01*
X122439Y238635D01*
X122889Y238560D01*
X123399Y238515D01*
X123969Y238500D01*
Y235500D01*
X123399Y235485D01*
X122889Y235440D01*
X122439Y235365D01*
X122050Y235260D01*
X121720Y235125D01*
X121449Y234960D01*
X121240Y234765D01*
X121089Y234540D01*
X120999Y234285D01*
X120969Y234000D01*
Y240000D01*
X120999Y239715D01*
D02*
G37*
G36*
X291040Y238710D02*
X293381Y237119D01*
Y195735D01*
X292040Y193290D01*
X284078D01*
Y238710D01*
X291040D01*
D02*
G37*
G36*
X275922Y193290D02*
X270578D01*
Y238710D01*
X275922D01*
Y193290D01*
D02*
G37*
G36*
X46922Y216750D02*
X46922Y216750D01*
X47232Y215189D01*
X48116Y213866D01*
X63750Y198232D01*
Y189768D01*
X54311Y180328D01*
X28813D01*
X28719Y180372D01*
X28066Y180400D01*
X27496Y180475D01*
X26937Y180599D01*
X26385Y180773D01*
X25837Y181000D01*
X25292Y181280D01*
X24748Y181617D01*
X24205Y182013D01*
X23663Y182469D01*
X23087Y183022D01*
X22802Y183133D01*
X22083Y183852D01*
X19917Y185103D01*
X17501Y185750D01*
X14999D01*
X12583Y185103D01*
X10417Y183852D01*
X8648Y182083D01*
X7397Y179917D01*
X7119Y178878D01*
X4119Y179273D01*
Y198627D01*
X7119Y199022D01*
X7397Y197983D01*
X8648Y195817D01*
X10417Y194048D01*
X12583Y192797D01*
X14999Y192150D01*
X17501D01*
X19917Y192797D01*
X22083Y194048D01*
X23852Y195817D01*
X25103Y197983D01*
X25750Y200399D01*
Y202901D01*
X25226Y204858D01*
X36634Y216266D01*
X36634Y216266D01*
X37518Y217589D01*
X37828Y219150D01*
Y242000D01*
X46922D01*
Y216750D01*
D02*
G37*
G36*
X22577Y181261D02*
X23203Y180734D01*
X23841Y180269D01*
X24492Y179866D01*
X25154Y179525D01*
X25829Y179246D01*
X26516Y179029D01*
X27215Y178874D01*
X27926Y178781D01*
X28649Y178750D01*
Y173750D01*
X27926Y173719D01*
X27215Y173626D01*
X26516Y173471D01*
X25829Y173254D01*
X25154Y172975D01*
X24492Y172634D01*
X23841Y172231D01*
X23203Y171766D01*
X22577Y171239D01*
X21963Y170650D01*
Y181850D01*
X22577Y181261D01*
D02*
G37*
G36*
X227250Y169965D02*
X227339Y169710D01*
X227489Y169485D01*
X227700Y169290D01*
X227969Y169125D01*
X228300Y168990D01*
X228689Y168885D01*
X229139Y168810D01*
X229650Y168765D01*
X230219Y168750D01*
Y165750D01*
X229650Y165735D01*
X229139Y165690D01*
X228689Y165615D01*
X228300Y165510D01*
X227969Y165375D01*
X227700Y165210D01*
X227489Y165015D01*
X227339Y164790D01*
X227250Y164535D01*
X227220Y164250D01*
Y170250D01*
X227250Y169965D01*
D02*
G37*
G36*
X210280Y158780D02*
X207281Y158750D01*
Y161750D01*
X207850Y161765D01*
X208361Y161810D01*
X208811Y161885D01*
X209200Y161990D01*
X209531Y162125D01*
X209800Y162290D01*
X210011Y162485D01*
X210161Y162710D01*
X210250Y162965D01*
X210280Y163250D01*
Y158780D01*
D02*
G37*
G36*
X132999Y156965D02*
X133090Y156710D01*
X133239Y156485D01*
X133449Y156290D01*
X133720Y156125D01*
X134050Y155990D01*
X134439Y155885D01*
X134889Y155810D01*
X135400Y155765D01*
X135969Y155750D01*
Y152750D01*
X135400Y152735D01*
X134889Y152690D01*
X134439Y152615D01*
X134050Y152510D01*
X133720Y152375D01*
X133449Y152210D01*
X133239Y152015D01*
X133090Y151790D01*
X132999Y151535D01*
X132970Y151250D01*
Y157250D01*
X132999Y156965D01*
D02*
G37*
G36*
X257762Y152530D02*
X259250D01*
X258965Y152500D01*
X258710Y152410D01*
X258485Y152261D01*
X258290Y152051D01*
X258125Y151781D01*
X257990Y151451D01*
X257936Y151250D01*
X257990Y151050D01*
X258125Y150719D01*
X258290Y150450D01*
X258485Y150240D01*
X258710Y150090D01*
X258965Y150000D01*
X259250Y149970D01*
X257762D01*
X257750Y149530D01*
X254750D01*
X254739Y149970D01*
X253250D01*
X253535Y150000D01*
X253790Y150090D01*
X254015Y150240D01*
X254210Y150450D01*
X254375Y150719D01*
X254510Y151050D01*
X254564Y151250D01*
X254510Y151451D01*
X254375Y151781D01*
X254210Y152051D01*
X254015Y152261D01*
X253790Y152410D01*
X253535Y152500D01*
X253250Y152530D01*
X254739D01*
X254750Y152970D01*
X257750D01*
X257762Y152530D01*
D02*
G37*
G36*
X24259Y149658D02*
X24406Y147656D01*
X24544Y146765D01*
X24724Y145947D01*
X24946Y145203D01*
X25211Y144532D01*
X25519Y143934D01*
X25869Y143411D01*
X26261Y142960D01*
X24140Y140839D01*
X23689Y141231D01*
X23166Y141581D01*
X22568Y141889D01*
X21897Y142154D01*
X21153Y142376D01*
X20335Y142556D01*
X19444Y142694D01*
X18479Y142788D01*
X16330Y142850D01*
X24250Y150770D01*
X24259Y149658D01*
D02*
G37*
G36*
X165771Y139080D02*
X164623Y136309D01*
X138374D01*
X135540Y136710D01*
Y151115D01*
X136012Y151127D01*
X136157Y151191D01*
X153660D01*
X165771Y139080D01*
D02*
G37*
G36*
X7397Y147183D02*
X8648Y145017D01*
X10417Y143248D01*
X12583Y141997D01*
X14999Y141350D01*
X16010D01*
X16283Y141228D01*
X18376Y141167D01*
X19240Y141082D01*
X20037Y140959D01*
X20746Y140803D01*
X21366Y140618D01*
X21897Y140408D01*
X22340Y140180D01*
X22701Y139939D01*
X23073Y139615D01*
X23203Y139571D01*
X28194Y134580D01*
X27046Y131809D01*
X24508D01*
X24507Y131809D01*
X23522Y131613D01*
X22083Y133052D01*
X19917Y134303D01*
X17501Y134950D01*
X14999D01*
X12583Y134303D01*
X10417Y133052D01*
X8648Y131283D01*
X7397Y129117D01*
X7119Y128078D01*
X4119Y128473D01*
Y147827D01*
X7119Y148222D01*
X7397Y147183D01*
D02*
G37*
G36*
X267960Y125866D02*
Y117710D01*
X275922D01*
Y113290D01*
X267960D01*
Y110481D01*
X264960Y109239D01*
X264915Y109284D01*
X262625Y110606D01*
X260072Y111290D01*
X260020D01*
Y101250D01*
Y91210D01*
X260072D01*
X262625Y91894D01*
X264915Y93216D01*
X264960Y93261D01*
X267960Y92019D01*
Y90210D01*
X278730D01*
Y101750D01*
X281270D01*
Y90210D01*
X292040D01*
X293381Y87765D01*
Y3509D01*
X4119D01*
Y64259D01*
X6750Y65150D01*
X7119Y65150D01*
X19425D01*
X19444Y65139D01*
X19469Y65080D01*
X19527Y64865D01*
X19578Y64556D01*
X19613Y64158D01*
X19627Y63638D01*
X19712Y63447D01*
X19924Y62380D01*
X20587Y61388D01*
X37441Y44534D01*
Y44051D01*
X37441Y44051D01*
X37500Y43755D01*
Y35551D01*
X52500D01*
Y47051D01*
X43273D01*
X42663Y47964D01*
X42663Y47964D01*
X25863Y64764D01*
X25843Y66697D01*
X25809Y66777D01*
Y68150D01*
X25809Y68150D01*
X25750Y68446D01*
Y84150D01*
X7119D01*
X6750Y84150D01*
X4119Y85041D01*
Y97027D01*
X7119Y97422D01*
X7397Y96383D01*
X8648Y94217D01*
X10417Y92448D01*
X12583Y91197D01*
X14999Y90550D01*
X17501D01*
X19917Y91197D01*
X22083Y92448D01*
X22798Y93163D01*
X23078Y93269D01*
X24601Y94707D01*
X25272Y95258D01*
X25921Y95734D01*
X26533Y96125D01*
X27102Y96432D01*
X27626Y96659D01*
X28101Y96812D01*
X28527Y96896D01*
X29019Y96930D01*
X29142Y96991D01*
X31984D01*
X36925Y92050D01*
X36982Y91902D01*
X37354Y91511D01*
X37654Y91158D01*
X37909Y90817D01*
X38123Y90489D01*
X38296Y90174D01*
X38432Y89872D01*
X38532Y89585D01*
X38601Y89309D01*
X38642Y89041D01*
X38659Y88697D01*
X38750Y88505D01*
Y83051D01*
X53750D01*
Y94551D01*
X44796D01*
X44604Y94642D01*
X44260Y94659D01*
X43993Y94699D01*
X43716Y94768D01*
X43429Y94869D01*
X43127Y95005D01*
X42812Y95178D01*
X42484Y95392D01*
X42143Y95647D01*
X41790Y95947D01*
X41399Y96319D01*
X41251Y96376D01*
X35414Y102213D01*
X34422Y102876D01*
X33251Y103109D01*
X33251Y103109D01*
X29142D01*
X29019Y103170D01*
X28527Y103204D01*
X28101Y103288D01*
X27626Y103441D01*
X27102Y103668D01*
X26533Y103975D01*
X25921Y104366D01*
X25288Y104830D01*
X23856Y106066D01*
X23101Y106808D01*
X22809Y106926D01*
X22083Y107652D01*
X19917Y108903D01*
X17501Y109550D01*
X14999D01*
X12583Y108903D01*
X10417Y107652D01*
X8648Y105883D01*
X7397Y103717D01*
X7119Y102678D01*
X4119Y103073D01*
Y122427D01*
X7119Y122822D01*
X7397Y121783D01*
X8648Y119617D01*
X10417Y117848D01*
X12583Y116597D01*
X14999Y115950D01*
X17501D01*
X19917Y116597D01*
X22083Y117848D01*
X23852Y119617D01*
X25103Y121783D01*
X25750Y124199D01*
Y125691D01*
X166432D01*
X167736Y124387D01*
X167736Y124387D01*
X168414Y123934D01*
X168833Y123409D01*
X169726Y120727D01*
X169716Y120567D01*
X169113Y119524D01*
X168500Y117235D01*
Y114865D01*
X169113Y112576D01*
X170168Y110750D01*
X169909Y109789D01*
X168829Y107750D01*
X161027D01*
Y79750D01*
X164330D01*
X164522Y79659D01*
X164866Y79642D01*
X165134Y79602D01*
X165410Y79532D01*
X165698Y79432D01*
X165999Y79296D01*
X166314Y79123D01*
X166643Y78910D01*
X166984Y78654D01*
X167336Y78354D01*
X167728Y77982D01*
X167875Y77925D01*
X174214Y71587D01*
X174214Y71587D01*
X175206Y70924D01*
X176377Y70691D01*
X176377Y70691D01*
X233622D01*
X233622Y70691D01*
X234793Y70924D01*
X235785Y71587D01*
X238150Y73952D01*
X240922Y72804D01*
Y55564D01*
X228108Y42750D01*
X224526D01*
Y14750D01*
X233876D01*
Y36982D01*
X247884Y50990D01*
X247884Y50990D01*
X248768Y52313D01*
X249078Y53874D01*
Y76067D01*
X249144Y76164D01*
X249454Y77725D01*
X249454Y77725D01*
Y92105D01*
X252454Y93347D01*
X252585Y93216D01*
X254875Y91894D01*
X257428Y91210D01*
X257480D01*
Y101250D01*
Y111290D01*
X257428D01*
X254875Y110606D01*
X252585Y109284D01*
X252454Y109153D01*
X249454Y110395D01*
Y115732D01*
X252454Y116975D01*
X252668Y116761D01*
X254505Y116000D01*
X256495D01*
X258332Y116761D01*
X259739Y118168D01*
X260500Y120005D01*
Y121777D01*
X260575Y122107D01*
X262459Y124931D01*
X262718Y124982D01*
X264041Y125866D01*
X265188Y127014D01*
X267960Y125866D01*
D02*
G37*
G36*
X22756Y104871D02*
X24276Y103559D01*
X25003Y103026D01*
X25709Y102575D01*
X26392Y102206D01*
X27054Y101919D01*
X27694Y101714D01*
X28312Y101591D01*
X28908Y101550D01*
Y98550D01*
X28312Y98509D01*
X27694Y98386D01*
X27054Y98181D01*
X26392Y97894D01*
X25709Y97525D01*
X25003Y97074D01*
X24276Y96541D01*
X23527Y95926D01*
X21963Y94450D01*
Y105650D01*
X22756Y104871D01*
D02*
G37*
G36*
X40705Y94739D02*
X41129Y94378D01*
X41553Y94060D01*
X41977Y93784D01*
X42402Y93551D01*
X42826Y93360D01*
X43250Y93211D01*
X43675Y93105D01*
X44099Y93042D01*
X44523Y93021D01*
X40280Y88778D01*
X40259Y89202D01*
X40195Y89627D01*
X40090Y90051D01*
X39941Y90475D01*
X39750Y90899D01*
X39517Y91323D01*
X39241Y91748D01*
X38923Y92172D01*
X38562Y92596D01*
X38159Y93021D01*
X40280Y95142D01*
X40705Y94739D01*
D02*
G37*
G36*
X213442Y110982D02*
Y107750D01*
X211826D01*
Y81309D01*
X208477D01*
Y107750D01*
X206566D01*
Y108993D01*
X206333Y110163D01*
X205670Y111156D01*
X205670Y111156D01*
X191606Y125220D01*
X192754Y127991D01*
X196433D01*
X213442Y110982D01*
D02*
G37*
G36*
X181567Y85099D02*
X181631Y84675D01*
X181737Y84250D01*
X181886Y83826D01*
X182076Y83402D01*
X182310Y82978D01*
X182586Y82553D01*
X182904Y82129D01*
X183264Y81705D01*
X183668Y81280D01*
X181546Y79159D01*
X181122Y79562D01*
X180698Y79923D01*
X180273Y80241D01*
X179849Y80517D01*
X179425Y80750D01*
X179001Y80941D01*
X178576Y81090D01*
X178152Y81196D01*
X177728Y81259D01*
X177304Y81280D01*
X181546Y85523D01*
X181567Y85099D01*
D02*
G37*
G36*
X168867D02*
X168931Y84675D01*
X169037Y84250D01*
X169186Y83826D01*
X169376Y83402D01*
X169610Y82978D01*
X169886Y82553D01*
X170204Y82129D01*
X170564Y81705D01*
X170967Y81280D01*
X168846Y79159D01*
X168422Y79562D01*
X167998Y79923D01*
X167573Y80241D01*
X167149Y80517D01*
X166725Y80750D01*
X166301Y80941D01*
X165876Y81090D01*
X165452Y81196D01*
X165028Y81259D01*
X164604Y81280D01*
X168846Y85523D01*
X168867Y85099D01*
D02*
G37*
G36*
X24250Y63681D02*
X21250D01*
X21235Y64250D01*
X21190Y64760D01*
X21115Y65210D01*
X21010Y65601D01*
X20875Y65931D01*
X20710Y66200D01*
X20515Y66410D01*
X20290Y66561D01*
X20035Y66651D01*
X19750Y66680D01*
X24220D01*
X24250Y63681D01*
D02*
G37*
%LPC*%
G36*
X107730Y244540D02*
X94460D01*
Y238270D01*
X107730D01*
Y244540D01*
D02*
G37*
G36*
Y235730D02*
X94460D01*
Y229460D01*
X107730D01*
Y235730D01*
D02*
G37*
G36*
X179290Y234230D02*
X170020D01*
Y217960D01*
X179290D01*
Y234230D01*
D02*
G37*
G36*
X217480Y178290D02*
X207710D01*
Y168520D01*
X217480D01*
Y178290D01*
D02*
G37*
G36*
X84790Y172040D02*
X75020D01*
Y161000D01*
Y149960D01*
X84790D01*
Y157865D01*
X85262Y157877D01*
X85407Y157941D01*
X111492D01*
X114110Y155520D01*
X123730D01*
Y171790D01*
X114460D01*
Y164135D01*
X113988Y164123D01*
X113843Y164059D01*
X85407D01*
X85262Y164123D01*
X84790Y164135D01*
Y172040D01*
D02*
G37*
G36*
X46230Y166290D02*
X46019D01*
X43113Y165712D01*
X40376Y164578D01*
X37913Y162932D01*
X35818Y160837D01*
X34172Y158374D01*
X33038Y155637D01*
X32460Y152731D01*
Y152520D01*
X46230D01*
Y166290D01*
D02*
G37*
G36*
X221230Y140040D02*
X221178D01*
X218625Y139356D01*
X216335Y138034D01*
X214466Y136165D01*
X213144Y133875D01*
X212460Y131322D01*
Y131270D01*
X221230D01*
Y140040D01*
D02*
G37*
G36*
Y128730D02*
X212460D01*
Y128678D01*
X213144Y126125D01*
X214466Y123835D01*
X216335Y121966D01*
X218625Y120644D01*
X221178Y119960D01*
X221230D01*
Y128730D01*
D02*
G37*
%LPD*%
G36*
X117030Y158000D02*
X117001Y158285D01*
X116910Y158540D01*
X116761Y158765D01*
X116551Y158960D01*
X116280Y159125D01*
X115950Y159260D01*
X115561Y159365D01*
X115111Y159440D01*
X114600Y159485D01*
X114031Y159500D01*
Y162500D01*
X114600Y162515D01*
X115111Y162560D01*
X115561Y162635D01*
X115950Y162740D01*
X116280Y162875D01*
X116551Y163040D01*
X116761Y163235D01*
X116910Y163460D01*
X117001Y163715D01*
X117030Y164000D01*
Y158000D01*
D02*
G37*
G36*
X82249Y163715D02*
X82339Y163460D01*
X82490Y163235D01*
X82699Y163040D01*
X82970Y162875D01*
X83300Y162740D01*
X83689Y162635D01*
X84139Y162560D01*
X84649Y162515D01*
X85219Y162500D01*
Y159500D01*
X84649Y159485D01*
X84139Y159440D01*
X83689Y159365D01*
X83300Y159260D01*
X82970Y159125D01*
X82699Y158960D01*
X82490Y158765D01*
X82339Y158540D01*
X82249Y158285D01*
X82219Y158000D01*
Y164000D01*
X82249Y163715D01*
D02*
G37*
%LPC*%
G36*
X115750Y121500D02*
X96750D01*
Y109202D01*
X96659Y109010D01*
X96642Y108666D01*
X96602Y108399D01*
X96532Y108122D01*
X96432Y107835D01*
X96296Y107533D01*
X96123Y107218D01*
X95910Y106890D01*
X95654Y106549D01*
X95354Y106196D01*
X94982Y105805D01*
X94941Y105697D01*
X94842Y105636D01*
X94823Y105555D01*
X81596Y92327D01*
X81450Y92238D01*
X78750Y93724D01*
X78750Y95495D01*
Y104355D01*
X63750D01*
Y98901D01*
X63659Y98709D01*
X63642Y98365D01*
X63602Y98098D01*
X63533Y97821D01*
X63432Y97534D01*
X63296Y97232D01*
X63123Y96917D01*
X62910Y96589D01*
X62654Y96248D01*
X62354Y95895D01*
X61982Y95504D01*
X61925Y95356D01*
X58837Y92268D01*
X58174Y91276D01*
X57941Y90105D01*
X57941Y90105D01*
Y45613D01*
X57941Y45612D01*
X58174Y44442D01*
X58837Y43450D01*
X60595Y41692D01*
X60595Y41692D01*
X61587Y41029D01*
X62758Y40796D01*
X62758Y40796D01*
X77556D01*
X77556Y40796D01*
X78727Y41029D01*
X79719Y41692D01*
X86218Y48191D01*
X95093D01*
X95238Y48127D01*
X95758Y48113D01*
X96156Y48078D01*
X96465Y48027D01*
X96680Y47969D01*
X96740Y47944D01*
X96750Y47925D01*
Y42250D01*
X109425D01*
X109444Y42239D01*
X109469Y42180D01*
X109527Y41965D01*
X109578Y41656D01*
X109613Y41258D01*
X109627Y40738D01*
X109691Y40594D01*
Y36383D01*
X109691Y36383D01*
X109924Y35213D01*
X110587Y34220D01*
X111786Y33022D01*
X110638Y30250D01*
X102796D01*
X102604Y30341D01*
X102260Y30358D01*
X101993Y30398D01*
X101716Y30468D01*
X101429Y30568D01*
X101127Y30704D01*
X100812Y30877D01*
X100484Y31091D01*
X100143Y31346D01*
X99790Y31646D01*
X99399Y32018D01*
X99251Y32075D01*
X97311Y34015D01*
X96319Y34678D01*
X95148Y34911D01*
X95148Y34911D01*
X79103D01*
X78958Y34975D01*
X78438Y34989D01*
X78040Y35024D01*
X77731Y35075D01*
X77516Y35133D01*
X77456Y35158D01*
X77446Y35177D01*
Y37602D01*
X62446D01*
Y26102D01*
X77446D01*
Y28527D01*
X77456Y28546D01*
X77516Y28571D01*
X77731Y28629D01*
X78040Y28680D01*
X78438Y28715D01*
X78958Y28729D01*
X79103Y28793D01*
X93881D01*
X94925Y27749D01*
X94982Y27601D01*
X95354Y27210D01*
X95654Y26857D01*
X95909Y26516D01*
X96123Y26188D01*
X96296Y25873D01*
X96432Y25571D01*
X96532Y25284D01*
X96602Y25008D01*
X96642Y24740D01*
X96659Y24396D01*
X96750Y24204D01*
Y12250D01*
X115750D01*
Y25138D01*
X118522Y26286D01*
X133720Y11087D01*
X133720Y11087D01*
X134713Y10424D01*
X135883Y10191D01*
X197626D01*
X197626Y10191D01*
X198796Y10424D01*
X199789Y11087D01*
X201627Y12925D01*
X201775Y12982D01*
X202166Y13354D01*
X202519Y13654D01*
X202859Y13909D01*
X203188Y14123D01*
X203503Y14296D01*
X203804Y14432D01*
X204092Y14533D01*
X204368Y14602D01*
X204636Y14642D01*
X204980Y14659D01*
X205172Y14750D01*
X208476D01*
Y42750D01*
X199126D01*
Y22025D01*
X198859Y21521D01*
X198776Y21457D01*
X195776Y22933D01*
Y42750D01*
X192472D01*
X192280Y42841D01*
X191936Y42858D01*
X191669Y42898D01*
X191392Y42968D01*
X191105Y43068D01*
X190803Y43204D01*
X190488Y43377D01*
X190160Y43590D01*
X189819Y43846D01*
X189466Y44146D01*
X189075Y44518D01*
X188927Y44575D01*
X156752Y76750D01*
X157677Y79750D01*
X157677Y80068D01*
Y107750D01*
X148327D01*
Y83176D01*
X146652Y82214D01*
X144977Y83176D01*
Y107750D01*
X135627D01*
Y82559D01*
X135627Y79750D01*
X132706Y79559D01*
X117407D01*
X117262Y79623D01*
X116742Y79637D01*
X116344Y79672D01*
X116035Y79723D01*
X115820Y79781D01*
X115760Y79806D01*
X115750Y79825D01*
Y91500D01*
X96750D01*
Y79480D01*
X95975Y79326D01*
X94982Y78663D01*
X94982Y78663D01*
X74999Y58680D01*
X74851Y58623D01*
X74460Y58251D01*
X74107Y57951D01*
X73766Y57696D01*
X73438Y57482D01*
X73123Y57309D01*
X72821Y57173D01*
X72534Y57073D01*
X72258Y57003D01*
X71990Y56963D01*
X71646Y56946D01*
X71454Y56855D01*
X64059D01*
Y73602D01*
X78696D01*
Y79056D01*
X78787Y79248D01*
X78804Y79592D01*
X78844Y79859D01*
X78913Y80136D01*
X79014Y80423D01*
X79150Y80725D01*
X79323Y81040D01*
X79536Y81368D01*
X79792Y81709D01*
X80092Y82062D01*
X80464Y82453D01*
X80521Y82601D01*
X99595Y101675D01*
X99743Y101732D01*
X100134Y102104D01*
X100487Y102404D01*
X100828Y102659D01*
X101156Y102873D01*
X101471Y103046D01*
X101773Y103182D01*
X102060Y103282D01*
X102337Y103352D01*
X102604Y103392D01*
X102948Y103409D01*
X102973Y103420D01*
X102998Y103412D01*
X103170Y103500D01*
X115750D01*
Y121500D01*
D02*
G37*
G36*
X221176Y42750D02*
X211826D01*
Y14750D01*
X221176D01*
Y42750D01*
D02*
G37*
%LPD*%
G36*
X102867Y105030D02*
X102443Y105009D01*
X102019Y104946D01*
X101594Y104840D01*
X101170Y104691D01*
X100746Y104500D01*
X100322Y104267D01*
X99897Y103991D01*
X99473Y103673D01*
X99049Y103312D01*
X98624Y102909D01*
X96159Y104686D01*
X96562Y105111D01*
X96923Y105535D01*
X97241Y105959D01*
X97517Y106384D01*
X97750Y106808D01*
X97941Y107232D01*
X98090Y107656D01*
X98196Y108081D01*
X98259Y108505D01*
X98280Y108929D01*
X102867Y105030D01*
D02*
G37*
G36*
X69523Y94385D02*
X69099Y94364D01*
X68675Y94301D01*
X68250Y94194D01*
X67826Y94046D01*
X67402Y93855D01*
X66978Y93622D01*
X66553Y93346D01*
X66129Y93028D01*
X65705Y92667D01*
X65281Y92264D01*
X63159Y94385D01*
X63562Y94810D01*
X63923Y95234D01*
X64241Y95658D01*
X64517Y96082D01*
X64750Y96507D01*
X64941Y96931D01*
X65090Y97355D01*
X65196Y97780D01*
X65259Y98204D01*
X65281Y98628D01*
X69523Y94385D01*
D02*
G37*
G36*
X79287Y83572D02*
X78884Y83147D01*
X78523Y82723D01*
X78205Y82299D01*
X77929Y81875D01*
X77696Y81450D01*
X77505Y81026D01*
X77356Y80602D01*
X77250Y80177D01*
X77187Y79753D01*
X77165Y79329D01*
X72923Y83572D01*
X73347Y83593D01*
X73771Y83656D01*
X74196Y83762D01*
X74620Y83911D01*
X75044Y84102D01*
X75469Y84335D01*
X75893Y84611D01*
X76317Y84929D01*
X76741Y85290D01*
X77165Y85693D01*
X79287Y83572D01*
D02*
G37*
G36*
X114249Y79215D02*
X114340Y78960D01*
X114489Y78735D01*
X114699Y78540D01*
X114970Y78375D01*
X115300Y78240D01*
X115689Y78135D01*
X116139Y78060D01*
X116650Y78015D01*
X117219Y78000D01*
Y75000D01*
X114220Y75030D01*
Y79500D01*
X114249Y79215D01*
D02*
G37*
G36*
X112250Y73441D02*
X112250Y73441D01*
X114123D01*
X114203Y73407D01*
X117203Y73376D01*
X117211Y73380D01*
X117219Y73376D01*
X117376Y73441D01*
X151409D01*
X179328Y45522D01*
X178180Y42750D01*
X173726D01*
Y16309D01*
X170376D01*
Y42750D01*
X161026D01*
Y16309D01*
X157676D01*
Y42750D01*
X148326D01*
Y16309D01*
X144976D01*
Y42750D01*
X135626D01*
Y21753D01*
X132854Y20605D01*
X115809Y37650D01*
Y40624D01*
X115874Y40781D01*
X115870Y40789D01*
X115873Y40797D01*
X115843Y43797D01*
X115809Y43877D01*
Y45250D01*
X115809Y45250D01*
X115750Y45546D01*
Y60250D01*
X96750D01*
Y54575D01*
X96740Y54556D01*
X96680Y54531D01*
X96465Y54473D01*
X96156Y54422D01*
X95758Y54387D01*
X95238Y54373D01*
X95093Y54309D01*
X84951D01*
X84951Y54309D01*
X83781Y54076D01*
X83569Y53935D01*
X81266Y54882D01*
X80629Y55496D01*
X80636Y55665D01*
X98412Y73441D01*
X100250D01*
X100250Y73441D01*
X100546Y73500D01*
X111954D01*
X112250Y73441D01*
D02*
G37*
G36*
X78091Y55325D02*
X77688Y54900D01*
X77327Y54476D01*
X77009Y54052D01*
X76733Y53628D01*
X76500Y53203D01*
X76309Y52779D01*
X76160Y52355D01*
X76055Y51930D01*
X75991Y51506D01*
X75970Y51082D01*
X71727Y55325D01*
X72151Y55346D01*
X72575Y55409D01*
X73000Y55515D01*
X73424Y55664D01*
X73848Y55855D01*
X74273Y56088D01*
X74697Y56364D01*
X75121Y56682D01*
X75545Y57043D01*
X75970Y57446D01*
X78091Y55325D01*
D02*
G37*
G36*
X98280Y48250D02*
X98251Y48535D01*
X98160Y48790D01*
X98011Y49015D01*
X97801Y49210D01*
X97530Y49375D01*
X97200Y49510D01*
X96811Y49615D01*
X96361Y49690D01*
X95850Y49735D01*
X95281Y49750D01*
Y52750D01*
X95850Y52765D01*
X96361Y52810D01*
X96811Y52885D01*
X97200Y52990D01*
X97530Y53125D01*
X97801Y53290D01*
X98011Y53485D01*
X98160Y53710D01*
X98251Y53965D01*
X98280Y54250D01*
Y48250D01*
D02*
G37*
G36*
X114250Y40781D02*
X111250D01*
X111235Y41350D01*
X111190Y41860D01*
X111115Y42311D01*
X111010Y42701D01*
X110875Y43031D01*
X110710Y43300D01*
X110515Y43510D01*
X110290Y43660D01*
X110035Y43751D01*
X109750Y43780D01*
X114220D01*
X114250Y40781D01*
D02*
G37*
G36*
X188381Y42938D02*
X188805Y42577D01*
X189229Y42259D01*
X189653Y41983D01*
X190078Y41750D01*
X190502Y41559D01*
X190926Y41410D01*
X191350Y41304D01*
X191775Y41241D01*
X192199Y41220D01*
X187956Y36977D01*
X187935Y37401D01*
X187871Y37825D01*
X187765Y38250D01*
X187617Y38674D01*
X187426Y39098D01*
X187193Y39523D01*
X186917Y39947D01*
X186599Y40371D01*
X186238Y40795D01*
X185835Y41220D01*
X187956Y43341D01*
X188381Y42938D01*
D02*
G37*
G36*
X75946Y34567D02*
X76035Y34312D01*
X76185Y34087D01*
X76396Y33892D01*
X76666Y33727D01*
X76996Y33592D01*
X77386Y33487D01*
X77835Y33412D01*
X78345Y33367D01*
X78916Y33352D01*
Y30352D01*
X78345Y30337D01*
X77835Y30292D01*
X77386Y30217D01*
X76996Y30112D01*
X76666Y29977D01*
X76396Y29812D01*
X76185Y29617D01*
X76035Y29392D01*
X75946Y29137D01*
X75915Y28852D01*
Y34852D01*
X75946Y34567D01*
D02*
G37*
G36*
X98705Y30438D02*
X99129Y30077D01*
X99553Y29759D01*
X99978Y29483D01*
X100402Y29250D01*
X100826Y29059D01*
X101250Y28910D01*
X101675Y28804D01*
X102099Y28741D01*
X102523Y28719D01*
X98280Y24477D01*
X98259Y24901D01*
X98196Y25325D01*
X98090Y25750D01*
X97941Y26174D01*
X97750Y26598D01*
X97517Y27023D01*
X97241Y27447D01*
X96923Y27871D01*
X96562Y28295D01*
X96159Y28719D01*
X98280Y30841D01*
X98705Y30438D01*
D02*
G37*
G36*
X204899Y16280D02*
X204475Y16259D01*
X204050Y16196D01*
X203626Y16090D01*
X203202Y15941D01*
X202778Y15750D01*
X202353Y15517D01*
X201929Y15241D01*
X201505Y14923D01*
X201081Y14562D01*
X200656Y14159D01*
X198535Y16280D01*
X198938Y16705D01*
X199299Y17129D01*
X199617Y17553D01*
X199893Y17977D01*
X200126Y18402D01*
X200317Y18826D01*
X200465Y19250D01*
X200571Y19675D01*
X200635Y20099D01*
X200656Y20523D01*
X204899Y16280D01*
D02*
G37*
D10*
X253250Y141750D02*
D03*
Y135250D02*
D03*
Y128750D02*
D03*
Y148250D02*
D03*
Y154750D02*
D03*
D11*
X280000Y101750D02*
D03*
Y181750D02*
D03*
D12*
Y153750D02*
D03*
Y129750D02*
D03*
D13*
X70000Y51105D02*
D03*
X69946Y31852D02*
D03*
X45000Y41301D02*
D03*
X71250Y98605D02*
D03*
X71196Y79352D02*
D03*
X46250Y88801D02*
D03*
D14*
X106250Y51250D02*
D03*
Y21250D02*
D03*
Y82500D02*
D03*
Y112500D02*
D03*
D15*
X216501Y93750D02*
D03*
X203802D02*
D03*
X191102D02*
D03*
X178402D02*
D03*
X165702D02*
D03*
X153002D02*
D03*
X140302D02*
D03*
X140301Y28750D02*
D03*
X153001D02*
D03*
X165701D02*
D03*
X178401D02*
D03*
X191101D02*
D03*
X203801D02*
D03*
X216501D02*
D03*
X229201D02*
D03*
D16*
Y93750D02*
D03*
D17*
X109000Y237000D02*
D03*
Y260000D02*
D03*
Y283000D02*
D03*
D18*
X51000Y260000D02*
D03*
D19*
X73750Y161000D02*
D03*
Y194000D02*
D03*
X177500Y167250D02*
D03*
Y200250D02*
D03*
X280000Y249750D02*
D03*
Y282750D02*
D03*
X218750Y200250D02*
D03*
Y167250D02*
D03*
D20*
X125000Y154250D02*
D03*
Y198250D02*
D03*
X168750Y235500D02*
D03*
Y279500D02*
D03*
D21*
X248305Y128750D02*
X261157D01*
X266500Y134093D01*
Y258907D01*
X274000Y266407D01*
Y276750D01*
X280000Y282750D01*
X218750Y200250D02*
X237500Y219000D01*
X37343Y280500D02*
X88843D01*
X95765Y273578D01*
X118078D01*
X218750Y200250D02*
X239322Y179678D01*
X251678D01*
X229201Y28750D02*
Y38075D01*
X237500Y219000D02*
Y239900D01*
X136657Y255000D02*
X222400D01*
X118078Y273578D02*
X136657Y255000D01*
X222400D02*
X237500Y239900D01*
X33750Y276907D02*
X37343Y280500D01*
X16250Y201650D02*
X33750Y219150D01*
Y276907D01*
X251678Y179678D02*
X265000Y166357D01*
X245000Y77349D02*
X245376Y77725D01*
X245000Y53874D02*
Y77349D01*
X229201Y38075D02*
X245000Y53874D01*
X245376Y77725D02*
Y125821D01*
X248305Y128750D01*
X280000Y181750D02*
Y249750D01*
Y153750D02*
Y181750D01*
Y101750D02*
Y129750D01*
Y153750D01*
X16250Y176250D02*
X56000D01*
X73750Y194000D01*
X78000Y198250D01*
X125000D01*
X127000Y200250D01*
X51000Y216750D02*
X73750Y194000D01*
X51000Y216750D02*
Y260000D01*
X109000D01*
X127000Y200250D02*
X177500D01*
D22*
X171850Y282600D02*
X279850D01*
X280000Y282750D01*
X168750Y279500D02*
X171850Y282600D01*
X112500Y279500D02*
X168750D01*
X109000Y283000D02*
X112500Y279500D01*
X206073Y160250D02*
X211750D01*
X218750Y167250D01*
X73750Y161000D02*
X118500D01*
X125000Y154500D01*
Y154250D02*
Y154500D01*
X109000Y237000D02*
X167250D01*
X168750Y235500D01*
X218750Y167250D02*
X238750D01*
X251500Y154500D01*
X256250Y148000D02*
Y154500D01*
X251500D02*
X256250D01*
X181373Y135550D02*
X206073Y160250D01*
X125000Y154250D02*
X154927D01*
X173627Y135550D01*
X181373D01*
X258750Y101250D02*
X277750D01*
X16250Y74650D02*
X22750Y68150D01*
X105750Y21250D02*
X106250D01*
X112750Y36383D02*
X135883Y13250D01*
X95148Y31852D02*
X105750Y21250D01*
X69946Y31852D02*
X95148D01*
X112750Y36383D02*
Y45250D01*
X43250Y41301D02*
X45000D01*
X40500Y44051D02*
X43250Y41301D01*
X62758Y43855D02*
X77556D01*
X61000Y45612D02*
X62758Y43855D01*
X61000Y45612D02*
Y90105D01*
X40500Y44051D02*
Y45801D01*
X77556Y43855D02*
X84951Y51250D01*
X106750D02*
X112750Y45250D01*
X70000Y51105D02*
X71750D01*
X84951Y51250D02*
X106250D01*
X22750Y63551D02*
X40500Y45801D01*
X71750Y51105D02*
X97145Y76500D01*
X22750Y63551D02*
Y68150D01*
X18737Y127937D02*
X23695D01*
X24507Y128750D01*
X16250Y125450D02*
X18737Y127937D01*
X16250Y100050D02*
X33251D01*
X16250Y150850D02*
X33850Y133250D01*
X33251Y100050D02*
X44500Y88801D01*
X97145Y76500D02*
X100250D01*
X71196Y79352D02*
X72946D01*
X106250Y82500D02*
X112250Y76500D01*
X100250D02*
X106250Y82500D01*
X44500Y88801D02*
X46250D01*
X72946Y79352D02*
X99750Y106156D01*
X61000Y90105D02*
X69500Y98605D01*
X71250D01*
X99750Y106156D02*
Y106500D01*
X105750Y112500D01*
X106250D01*
X24507Y128750D02*
X167699D01*
X33850Y133250D02*
X169563D01*
X165702Y84425D02*
Y93750D01*
X112250Y76500D02*
X152676D01*
X191101Y38075D01*
X135883Y13250D02*
X197626D01*
X165702Y84425D02*
X176377Y73750D01*
X197626Y13250D02*
X203801Y19425D01*
Y28750D01*
X191101D02*
Y38075D01*
X176377Y73750D02*
X233622D01*
X239876Y80003D01*
X184577Y78250D02*
X231758D01*
X235376Y81867D01*
X178402Y84425D02*
X184577Y78250D01*
X178402Y84425D02*
Y93750D01*
X203507Y94044D02*
X203802Y93750D01*
X203507Y94044D02*
Y108993D01*
X191102Y93750D02*
Y110148D01*
X216501Y93750D02*
Y112249D01*
X235376Y136626D02*
X240250Y141500D01*
X235376Y81867D02*
Y136626D01*
X186835Y114415D02*
X191102Y110148D01*
X179135Y114415D02*
X186835D01*
X177500Y116050D02*
X179135Y114415D01*
X185950Y126550D02*
X203507Y108993D01*
X197700Y131050D02*
X216501Y112249D01*
X169899Y126550D02*
X185950D01*
X167699Y128750D02*
X169899Y126550D01*
X171763Y131050D02*
X197700D01*
X169563Y133250D02*
X171763Y131050D01*
X239876Y80003D02*
Y131126D01*
X244000Y135250D01*
X253250D01*
X240250Y141500D02*
X256250D01*
X177500Y147500D02*
Y167250D01*
D23*
X16250Y125450D02*
D03*
Y100050D02*
D03*
Y150850D02*
D03*
Y201650D02*
D03*
Y227050D02*
D03*
Y176250D02*
D03*
D24*
Y74650D02*
D03*
D25*
X255500Y162500D02*
D03*
Y121000D02*
D03*
D26*
X47500Y151250D02*
D03*
X16540Y267500D02*
D03*
D27*
X222500Y130000D02*
D03*
X258750Y101250D02*
D03*
X177500Y116050D02*
D03*
Y147500D02*
D03*
M02*
