G04*
G04 #@! TF.GenerationSoftware,Altium Limited,Altium Designer,25.8.1 (18)*
G04*
G04 Layer_Color=65535*
%FSLAX44Y44*%
%MOMM*%
G71*
G04*
G04 #@! TF.SameCoordinates,9F860039-6082-445F-9F98-FDF6B6AB7181*
G04*
G04*
G04 #@! TF.FilePolarity,Positive*
G04*
G01*
G75*
%ADD10C,0.2500*%
%ADD11C,0.3810*%
%ADD12C,0.1270*%
%ADD13C,0.1500*%
%ADD14C,0.2032*%
%ADD15C,0.2000*%
%ADD16C,0.2540*%
D10*
X60020Y33650D02*
G03*
X60020Y33650I-1250J0D01*
G01*
X61270Y81150D02*
G03*
X61270Y81150I-1250J0D01*
G01*
X110250Y226500D02*
G03*
X110250Y226500I-1250J0D01*
G01*
D11*
X239361Y90709D02*
G03*
X239361Y90709I-1270J0D01*
G01*
D12*
X237456Y68368D02*
G03*
X237456Y54631I0J-6869D01*
G01*
X132046Y84359D02*
X134967Y84359D01*
X234535Y84359D02*
X237456Y84359D01*
X132046Y38639D02*
X134967Y38639D01*
X234535Y38639D02*
X237456Y38639D01*
X132046D02*
Y84359D01*
X237456Y38639D02*
Y84359D01*
X141500Y202750D02*
X151500Y192750D01*
X98500D02*
X108500Y202750D01*
X98500Y149750D02*
Y192750D01*
X151500Y149750D02*
Y192750D01*
X98500Y149750D02*
X115000D01*
X135000D02*
X151500D01*
X135000Y202750D02*
X141500D01*
X108500D02*
X115000D01*
X185250Y284000D02*
X195250Y274000D01*
X142250D02*
X152250Y284000D01*
X142250Y231000D02*
Y274000D01*
X195250Y231000D02*
Y274000D01*
X142250Y231000D02*
X158750D01*
X178750D02*
X195250D01*
X178750Y284000D02*
X185250D01*
X152250D02*
X158750D01*
X255000Y82500D02*
Y79834D01*
Y81167D01*
X262997D01*
X261665Y82500D01*
X130414Y97500D02*
X131747Y96167D01*
Y93501D01*
X130414Y92168D01*
X129082D01*
X127749Y93501D01*
X126416Y92168D01*
X125083D01*
X123750Y93501D01*
Y96167D01*
X125083Y97500D01*
X126416D01*
X127749Y96167D01*
X129082Y97500D01*
X130414D01*
X127749Y96167D02*
Y93501D01*
X123833Y12500D02*
X122500Y11167D01*
Y8501D01*
X123833Y7168D01*
X129164D01*
X130497Y8501D01*
Y11167D01*
X129164Y12500D01*
X127832D01*
X126499Y11167D01*
Y7168D01*
X255000Y33750D02*
Y31084D01*
Y32417D01*
X262997D01*
X261665Y33750D01*
X262997Y21754D02*
X261665Y24420D01*
X258999Y27085D01*
X256333D01*
X255000Y25753D01*
Y23087D01*
X256333Y21754D01*
X257666D01*
X258999Y23087D01*
Y27085D01*
D13*
X251500Y178750D02*
X268000D01*
X292000D02*
X301500D01*
X251500Y166250D02*
Y178750D01*
Y104750D02*
Y117250D01*
X292000Y104750D02*
X301500D01*
X251500D02*
X268000D01*
X306250Y181750D02*
X307500Y180000D01*
X301500Y176250D02*
X307500Y180000D01*
X301500Y178750D02*
X306250Y181750D01*
X301500Y104750D02*
X306250Y101750D01*
X301500Y107250D02*
X307500Y103500D01*
X306250Y101750D02*
X307500Y103500D01*
Y110750D02*
Y172750D01*
X301500D02*
X307500D01*
X301500D02*
Y176250D01*
Y110750D02*
X307500D01*
X301500Y107250D02*
Y110750D01*
D14*
X44800Y57760D02*
X70200D01*
X44800Y47600D02*
Y57760D01*
Y24740D02*
X70200D01*
X44800D02*
Y34900D01*
X46050Y105260D02*
X71450D01*
X46050Y95100D02*
Y105260D01*
Y72240D02*
X71450D01*
X46050D02*
Y82400D01*
D15*
X104218Y11866D02*
X116156D01*
Y60634D01*
X96344D02*
X116156D01*
X99646Y32694D02*
Y39806D01*
X113108Y32694D02*
Y39806D01*
X96344Y11866D02*
Y60634D01*
Y11866D02*
X104218D01*
X96344Y121884D02*
X108282D01*
X96344Y73116D02*
Y121884D01*
Y73116D02*
X116156D01*
X112854Y93944D02*
Y101056D01*
X99392Y93944D02*
Y101056D01*
X116156Y73116D02*
Y121884D01*
X108282D02*
X116156D01*
X94000Y226500D02*
Y293500D01*
X66000Y226500D02*
Y293500D01*
Y226500D02*
X94000D01*
X66000Y293500D02*
X94000D01*
X63590Y150830D02*
X68924D01*
X63590D02*
Y204170D01*
X81116Y173944D02*
Y181056D01*
X66638Y173944D02*
Y181056D01*
X63590Y204170D02*
X83910D01*
Y150830D02*
Y204170D01*
X68924Y150830D02*
X83910D01*
X167340Y157080D02*
X172674D01*
X167340D02*
Y210420D01*
X184866Y180194D02*
Y187306D01*
X170388Y180194D02*
Y187306D01*
X167340Y210420D02*
X187660D01*
Y157080D02*
Y210420D01*
X172674Y157080D02*
X187660D01*
X269840Y239580D02*
X275174D01*
X269840D02*
Y292920D01*
X287366Y262694D02*
Y269806D01*
X272888Y262694D02*
Y269806D01*
X269840Y292920D02*
X290160D01*
Y239580D02*
Y292920D01*
X275174Y239580D02*
X290160D01*
X208590Y157080D02*
X213924D01*
X208590D02*
Y210420D01*
X226116Y180194D02*
Y187306D01*
X211638Y180194D02*
Y187306D01*
X208590Y210420D02*
X228910D01*
Y157080D02*
Y210420D01*
X213924Y157080D02*
X228910D01*
D16*
X8501Y257749D02*
X5835D01*
X7168D01*
Y251084D01*
X5835Y249751D01*
X4503D01*
X3170Y251084D01*
X11167Y249751D02*
Y257749D01*
X15166D01*
X16499Y256416D01*
Y253750D01*
X15166Y252417D01*
X11167D01*
X19165Y249751D02*
X21830D01*
X20497D01*
Y257749D01*
X19165Y256416D01*
X267000Y202999D02*
X264334D01*
X265667D01*
Y196334D01*
X264334Y195001D01*
X263001D01*
X261668Y196334D01*
X269666Y195001D02*
X272332D01*
X270999D01*
Y202999D01*
X269666Y201666D01*
X54917Y8584D02*
Y13916D01*
X53584Y15249D01*
X50918D01*
X49585Y13916D01*
Y8584D01*
X50918Y7251D01*
X53584D01*
X52251Y9917D02*
X54917Y7251D01*
X53584D02*
X54917Y8584D01*
X62915Y7251D02*
X57583D01*
X62915Y12583D01*
Y13916D01*
X61582Y15249D01*
X58916D01*
X57583Y13916D01*
X56250Y116084D02*
Y121416D01*
X54917Y122749D01*
X52251D01*
X50918Y121416D01*
Y116084D01*
X52251Y114751D01*
X54917D01*
X53584Y117417D02*
X56250Y114751D01*
X54917D02*
X56250Y116084D01*
X58916Y114751D02*
X61582D01*
X60249D01*
Y122749D01*
X58916Y121416D01*
X75835Y8501D02*
Y16499D01*
X79834D01*
X81167Y15166D01*
Y12500D01*
X79834Y11167D01*
X75835D01*
X78501D02*
X81167Y8501D01*
X89164D02*
X83833D01*
X89164Y13833D01*
Y15166D01*
X87832Y16499D01*
X85166D01*
X83833Y15166D01*
X78418Y114751D02*
Y122749D01*
X82417D01*
X83750Y121416D01*
Y118750D01*
X82417Y117417D01*
X78418D01*
X81084D02*
X83750Y114751D01*
X86416D02*
X89082D01*
X87749D01*
Y122749D01*
X86416Y121416D01*
X143418Y120249D02*
Y113584D01*
X144751Y112251D01*
X147417D01*
X148750Y113584D01*
Y120249D01*
X151416Y112251D02*
X154082D01*
X152749D01*
Y120249D01*
X151416Y118916D01*
X27358Y285288D02*
Y290620D01*
X30024Y293285D01*
X32690Y290620D01*
Y285288D01*
Y289287D01*
X27358D01*
X35355Y285288D02*
Y293285D01*
X38021Y290620D01*
X40687Y293285D01*
Y285288D01*
X48685Y291952D02*
X47352Y293285D01*
X44686D01*
X43353Y291952D01*
Y290620D01*
X44686Y289287D01*
X47352D01*
X48685Y287954D01*
Y286621D01*
X47352Y285288D01*
X44686D01*
X43353Y286621D01*
X51350Y285288D02*
X54016D01*
X52683D01*
Y293285D01*
X51350Y291952D01*
X48750Y196416D02*
X47417Y197749D01*
X44751D01*
X43418Y196416D01*
Y191084D01*
X44751Y189751D01*
X47417D01*
X48750Y191084D01*
X51416Y189751D02*
X54082D01*
X52749D01*
Y197749D01*
X51416Y196416D01*
X99917Y217666D02*
X98584Y218999D01*
X95918D01*
X94586Y217666D01*
Y212334D01*
X95918Y211001D01*
X98584D01*
X99917Y212334D01*
X102583Y217666D02*
X103916Y218999D01*
X106582D01*
X107914Y217666D01*
Y216333D01*
X106582Y215000D01*
X105249D01*
X106582D01*
X107914Y213667D01*
Y212334D01*
X106582Y211001D01*
X103916D01*
X102583Y212334D01*
X196084Y197417D02*
X194751Y196084D01*
Y193418D01*
X196084Y192085D01*
X201416D01*
X202749Y193418D01*
Y196084D01*
X201416Y197417D01*
X194751Y205415D02*
Y200083D01*
X198750D01*
X197417Y202749D01*
Y204082D01*
X198750Y205415D01*
X201416D01*
X202749Y204082D01*
Y201416D01*
X201416Y200083D01*
X138100Y291698D02*
X136767Y293031D01*
X134101D01*
X132768Y291698D01*
Y286367D01*
X134101Y285034D01*
X136767D01*
X138100Y286367D01*
X144764Y285034D02*
Y293031D01*
X140765Y289033D01*
X146097D01*
X267417Y230166D02*
X266084Y231499D01*
X263418D01*
X262085Y230166D01*
Y224834D01*
X263418Y223501D01*
X266084D01*
X267417Y224834D01*
X275415Y223501D02*
X270083D01*
X275415Y228833D01*
Y230166D01*
X274082Y231499D01*
X271416D01*
X270083Y230166D01*
X238584Y197417D02*
X237251Y196084D01*
Y193418D01*
X238584Y192085D01*
X243916D01*
X245249Y193418D01*
Y196084D01*
X243916Y197417D01*
X237251Y205415D02*
X238584Y202749D01*
X241250Y200083D01*
X243916D01*
X245249Y201416D01*
Y204082D01*
X243916Y205415D01*
X242583D01*
X241250Y204082D01*
Y200083D01*
M02*
